<svg width="384" height="283" viewBox="0 0 384 283" fill="none" xmlns="http://www.w3.org/2000/svg">
<rect width="383.131" height="282.218" rx="8.5" fill="url(#paint0_linear_2428_694)" fill-opacity="0.2"/>
<path d="M211.25 135.5H214C214.729 135.5 215.429 135.79 215.945 136.305C216.46 136.821 216.75 137.521 216.75 138.25V165.75C216.75 166.479 216.46 167.179 215.945 167.695C215.429 168.21 214.729 168.5 214 168.5H170C169.271 168.5 168.571 168.21 168.055 167.695C167.54 167.179 167.25 166.479 167.25 165.75V138.25C167.25 137.521 167.54 136.821 168.055 136.305C168.571 135.79 169.271 135.5 170 135.5H172.75V132.75C172.75 127.645 174.778 122.748 178.388 119.138C181.998 115.528 186.895 113.5 192 113.5C197.105 113.5 202.002 115.528 205.612 119.138C209.222 122.748 211.25 127.645 211.25 132.75V135.5ZM205.75 135.5V132.75C205.75 129.103 204.301 125.606 201.723 123.027C199.144 120.449 195.647 119 192 119C188.353 119 184.856 120.449 182.277 123.027C179.699 125.606 178.25 129.103 178.25 132.75V135.5H205.75ZM189.25 146.5V157.5H194.75V146.5H189.25Z" fill="#696969"/>
<defs>
<linearGradient id="paint0_linear_2428_694" x1="191.566" y1="0" x2="191.566" y2="282.218" gradientUnits="userSpaceOnUse">
<stop stop-color="white"/>
<stop offset="1" stop-color="#999999"/>
</linearGradient>
</defs>
</svg>
