<svg width="143" height="129" viewBox="0 0 143 129" fill="none" xmlns="http://www.w3.org/2000/svg">
<path fill-rule="evenodd" clip-rule="evenodd" d="M34.0227 6.4174C34.0227 3.00099 36.7923 0.231445 40.2087 0.231445H61.8595C65.2759 0.231445 68.0455 3.00099 68.0455 6.4174C68.0455 9.8338 65.2759 12.6033 61.8595 12.6033H40.2087C36.7923 12.6033 34.0227 9.8338 34.0227 6.4174ZM40.2087 3.71104H61.8595C63.3542 3.71104 64.5659 4.92272 64.5659 6.4174C64.5659 7.91207 63.3542 9.12375 61.8595 9.12375H40.2087C38.714 9.12375 37.5023 7.91207 37.5023 6.4174C37.5023 4.92272 38.714 3.71104 40.2087 3.71104Z" fill="url(#paint0_linear_383_47)"/>
<path d="M17.0114 25.7485C17.0114 22.3321 19.7809 19.5625 23.1973 19.5625H61.8595C65.2759 19.5625 68.0455 22.3321 68.0455 25.7485C68.0455 29.1649 65.2759 31.9344 61.8595 31.9344H23.1973C19.7809 31.9344 17.0114 29.1649 17.0114 25.7485Z" fill="url(#paint1_linear_383_47)"/>
<path d="M13.1451 38.8936C9.72874 38.8936 6.95919 41.6632 6.95919 45.0796C6.95919 48.496 9.72874 51.2655 13.1451 51.2655H61.8595C65.2759 51.2655 68.0455 48.496 68.0455 45.0796C68.0455 41.6632 65.2759 38.8936 61.8595 38.8936H13.1451Z" fill="url(#paint2_linear_383_47)"/>
<path d="M0 64.4107C0 60.9943 2.76954 58.2247 6.18595 58.2247H61.8595C65.2759 58.2247 68.0455 60.9943 68.0455 64.4107C68.0455 67.8271 65.2759 70.5966 61.8595 70.5966H6.18595C2.76954 70.5966 0 67.8271 0 64.4107Z" fill="url(#paint3_linear_383_47)"/>
<path d="M13.1451 77.5558C9.72874 77.5558 6.95919 80.3254 6.95919 83.7418C6.95919 87.1582 9.72874 89.9277 13.1451 89.9277H61.8595C65.2759 89.9277 68.0455 87.1582 68.0455 83.7418C68.0455 80.3254 65.2759 77.5558 61.8595 77.5558H13.1451Z" fill="url(#paint4_linear_383_47)"/>
<path d="M17.0114 103.073C17.0114 99.6565 19.7809 96.8869 23.1973 96.8869H61.8595C65.2759 96.8869 68.0455 99.6565 68.0455 103.073C68.0455 106.489 65.2759 109.259 61.8595 109.259H23.1973C19.7809 109.259 17.0114 106.489 17.0114 103.073Z" fill="url(#paint5_linear_383_47)"/>
<path fill-rule="evenodd" clip-rule="evenodd" d="M40.2087 116.218C36.7923 116.218 34.0227 118.988 34.0227 122.404C34.0227 125.82 36.7923 128.59 40.2087 128.59H61.8595C65.2759 128.59 68.0455 125.82 68.0455 122.404C68.0455 118.988 65.2759 116.218 61.8595 116.218H40.2087ZM40.2087 119.698H61.8595C63.3542 119.698 64.5659 120.909 64.5659 122.404C64.5659 123.899 63.3542 125.11 61.8595 125.11H40.2087C38.714 125.11 37.5023 123.899 37.5023 122.404C37.5023 120.909 38.714 119.698 40.2087 119.698Z" fill="url(#paint6_linear_383_47)"/>
<path fill-rule="evenodd" clip-rule="evenodd" d="M108.254 6.4174C108.254 3.00099 105.485 0.231445 102.068 0.231445H80.4174C77.001 0.231445 74.2314 3.00099 74.2314 6.4174C74.2314 9.8338 77.001 12.6033 80.4174 12.6033H102.068C105.485 12.6033 108.254 9.8338 108.254 6.4174ZM80.4174 3.71104H102.068C103.563 3.71104 104.775 4.92272 104.775 6.4174C104.775 7.91207 103.563 9.12375 102.068 9.12375H80.4174C78.9227 9.12375 77.711 7.91207 77.711 6.4174C77.711 4.92272 78.9227 3.71104 80.4174 3.71104Z" fill="url(#paint7_linear_383_47)"/>
<path d="M119.08 19.5625C122.496 19.5625 125.266 22.3321 125.266 25.7485C125.266 29.1649 122.496 31.9344 119.08 31.9344H80.4174C77.001 31.9344 74.2314 29.1649 74.2314 25.7485C74.2314 22.3321 77.001 19.5625 80.4174 19.5625H119.08Z" fill="url(#paint8_linear_383_47)"/>
<path fill-rule="evenodd" clip-rule="evenodd" d="M135.318 45.0796C135.318 41.6632 132.548 38.8936 129.132 38.8936H80.4174C77.001 38.8936 74.2314 41.6632 74.2314 45.0796C74.2314 48.496 77.001 51.2655 80.4174 51.2655H129.132C132.548 51.2655 135.318 48.496 135.318 45.0796ZM80.4174 42.3732H129.132C130.626 42.3732 131.838 43.5849 131.838 45.0796C131.838 46.5743 130.626 47.7859 129.132 47.7859H80.4174C78.9227 47.7859 77.711 46.5743 77.711 45.0796C77.711 43.5849 78.9227 42.3732 80.4174 42.3732Z" fill="url(#paint9_linear_383_47)"/>
<path d="M136.091 58.2247C139.507 58.2247 142.277 60.9943 142.277 64.4107C142.277 67.8271 139.507 70.5966 136.091 70.5966H80.4174C77.001 70.5966 74.2314 67.8271 74.2314 64.4107C74.2314 60.9943 77.001 58.2247 80.4174 58.2247H136.091Z" fill="url(#paint10_linear_383_47)"/>
<path d="M135.318 83.7418C135.318 80.3254 132.548 77.5558 129.132 77.5558H80.4174C77.001 77.5558 74.2314 80.3254 74.2314 83.7418C74.2314 87.1582 77.001 89.9277 80.4174 89.9277H129.132C132.548 89.9277 135.318 87.1582 135.318 83.7418Z" fill="url(#paint11_linear_383_47)"/>
<path d="M119.08 96.8869C122.496 96.8869 125.266 99.6565 125.266 103.073C125.266 106.489 122.496 109.259 119.08 109.259H80.4174C77.001 109.259 74.2314 106.489 74.2314 103.073C74.2314 99.6565 77.001 96.8869 80.4174 96.8869H119.08Z" fill="url(#paint12_linear_383_47)"/>
<path fill-rule="evenodd" clip-rule="evenodd" d="M108.254 122.404C108.254 118.988 105.485 116.218 102.068 116.218H80.4174C77.001 116.218 74.2314 118.988 74.2314 122.404C74.2314 125.82 77.001 128.59 80.4174 128.59H102.068C105.485 128.59 108.254 125.82 108.254 122.404ZM80.4174 119.698H102.068C103.563 119.698 104.775 120.909 104.775 122.404C104.775 123.899 103.563 125.11 102.068 125.11H80.4174C78.9227 125.11 77.711 123.899 77.711 122.404C77.711 120.909 78.9227 119.698 80.4174 119.698Z" fill="url(#paint13_linear_383_47)"/>
<defs>
<linearGradient id="paint0_linear_383_47" x1="141.697" y1="-6.12296" x2="41.0455" y2="150.402" gradientUnits="userSpaceOnUse">
<stop stop-color="#C4F400"/>
<stop offset="1" stop-color="#374500"/>
</linearGradient>
<linearGradient id="paint1_linear_383_47" x1="141.697" y1="-6.12296" x2="41.0455" y2="150.402" gradientUnits="userSpaceOnUse">
<stop stop-color="#C4F400"/>
<stop offset="1" stop-color="#374500"/>
</linearGradient>
<linearGradient id="paint2_linear_383_47" x1="141.697" y1="-6.12296" x2="41.0455" y2="150.402" gradientUnits="userSpaceOnUse">
<stop stop-color="#C4F400"/>
<stop offset="1" stop-color="#374500"/>
</linearGradient>
<linearGradient id="paint3_linear_383_47" x1="141.697" y1="-6.12296" x2="41.0455" y2="150.402" gradientUnits="userSpaceOnUse">
<stop stop-color="#C4F400"/>
<stop offset="1" stop-color="#374500"/>
</linearGradient>
<linearGradient id="paint4_linear_383_47" x1="141.697" y1="-6.12296" x2="41.0455" y2="150.402" gradientUnits="userSpaceOnUse">
<stop stop-color="#C4F400"/>
<stop offset="1" stop-color="#374500"/>
</linearGradient>
<linearGradient id="paint5_linear_383_47" x1="141.697" y1="-6.12296" x2="41.0455" y2="150.402" gradientUnits="userSpaceOnUse">
<stop stop-color="#C4F400"/>
<stop offset="1" stop-color="#374500"/>
</linearGradient>
<linearGradient id="paint6_linear_383_47" x1="141.697" y1="-6.12296" x2="41.0455" y2="150.402" gradientUnits="userSpaceOnUse">
<stop stop-color="#C4F400"/>
<stop offset="1" stop-color="#374500"/>
</linearGradient>
<linearGradient id="paint7_linear_383_47" x1="141.697" y1="-6.12296" x2="41.0455" y2="150.402" gradientUnits="userSpaceOnUse">
<stop stop-color="#C4F400"/>
<stop offset="1" stop-color="#374500"/>
</linearGradient>
<linearGradient id="paint8_linear_383_47" x1="141.697" y1="-6.12296" x2="41.0455" y2="150.402" gradientUnits="userSpaceOnUse">
<stop stop-color="#C4F400"/>
<stop offset="1" stop-color="#374500"/>
</linearGradient>
<linearGradient id="paint9_linear_383_47" x1="141.697" y1="-6.12296" x2="41.0455" y2="150.402" gradientUnits="userSpaceOnUse">
<stop stop-color="#C4F400"/>
<stop offset="1" stop-color="#374500"/>
</linearGradient>
<linearGradient id="paint10_linear_383_47" x1="141.697" y1="-6.12296" x2="41.0455" y2="150.402" gradientUnits="userSpaceOnUse">
<stop stop-color="#C4F400"/>
<stop offset="1" stop-color="#374500"/>
</linearGradient>
<linearGradient id="paint11_linear_383_47" x1="141.697" y1="-6.12296" x2="41.0455" y2="150.402" gradientUnits="userSpaceOnUse">
<stop stop-color="#C4F400"/>
<stop offset="1" stop-color="#374500"/>
</linearGradient>
<linearGradient id="paint12_linear_383_47" x1="141.697" y1="-6.12296" x2="41.0455" y2="150.402" gradientUnits="userSpaceOnUse">
<stop stop-color="#C4F400"/>
<stop offset="1" stop-color="#374500"/>
</linearGradient>
<linearGradient id="paint13_linear_383_47" x1="141.697" y1="-6.12296" x2="41.0455" y2="150.402" gradientUnits="userSpaceOnUse">
<stop stop-color="#C4F400"/>
<stop offset="1" stop-color="#374500"/>
</linearGradient>
</defs>
</svg>
